<?xml version="1.0" encoding="UTF-8" standalone="no"?>
<!-- Created with Inkscape (http://www.inkscape.org/) -->

<svg
   xmlns:dc="http://purl.org/dc/elements/1.1/"
   xmlns:cc="http://creativecommons.org/ns#"
   xmlns:rdf="http://www.w3.org/1999/02/22-rdf-syntax-ns#"
   xmlns:svg="http://www.w3.org/2000/svg"
   xmlns="http://www.w3.org/2000/svg"
   xmlns:sodipodi="http://sodipodi.sourceforge.net/DTD/sodipodi-0.dtd"
   xmlns:inkscape="http://www.inkscape.org/namespaces/inkscape"
   width="360.00012"
   height="380.01294"
   id="svg2"
   version="1.1"
   inkscape:version="0.48.4 r9939"
   sodipodi:docname="fastcci.svg">
  <defs
     id="defs4" />
  <sodipodi:namedview
     id="base"
     pagecolor="#ffffff"
     bordercolor="#666666"
     borderopacity="1.0"
     inkscape:pageopacity="0.0"
     inkscape:pageshadow="2"
     inkscape:zoom="2.2157141"
     inkscape:cx="180.00006"
     inkscape:cy="190.00648"
     inkscape:document-units="px"
     inkscape:current-layer="layer1"
     showgrid="true"
     inkscape:window-width="1374"
     inkscape:window-height="1027"
     inkscape:window-x="593"
     inkscape:window-y="233"
     inkscape:window-maximized="0"
     fit-margin-top="0"
     fit-margin-left="0"
     fit-margin-right="0"
     fit-margin-bottom="0">
    <inkscape:grid
       type="xygrid"
       id="grid2985"
       empspacing="5"
       visible="true"
       enabled="true"
       snapvisiblegridlinesonly="true"
       originx="-79.999908px"
       originy="-299.98708px" />
  </sodipodi:namedview>
  <metadata
     id="metadata7">
    <rdf:RDF>
      <cc:Work
         rdf:about="">
        <dc:format>image/svg+xml</dc:format>
        <dc:type
           rdf:resource="http://purl.org/dc/dcmitype/StillImage" />
      </cc:Work>
    </rdf:RDF>
  </metadata>
  <g
     inkscape:label="Layer 1"
     inkscape:groupmode="layer"
     id="layer1"
     transform="translate(-79.999908,-372.36218)">
    <path
       sodipodi:type="arc"
       style="fill:#225544;fill-opacity:1;stroke:none"
       id="path3821"
       sodipodi:cx="300"
       sodipodi:cy="612.36218"
       sodipodi:rx="140"
       sodipodi:ry="140"
       d="m 439.9999,612.53361 c -0.0947,77.3198 -62.85152,139.92314 -140.17132,139.82847 -77.31981,-0.0947 -139.92315,-62.85151 -139.82848,-140.17132 0.0947,-77.31981 62.85152,-139.92315 140.17132,-139.82847 77.28624,0.0946 139.87573,62.79907 139.82855,140.08535"
       sodipodi:start="0.0012244538"
       sodipodi:end="6.2837957"
       sodipodi:open="true" />
    <path
       sodipodi:type="arc"
       style="fill:#225544;fill-opacity:1;stroke:none"
       id="path3823"
       sodipodi:cx="200"
       sodipodi:cy="492.36218"
       sodipodi:rx="120"
       sodipodi:ry="120"
       d="m 319.99991,492.50912 c -0.0811,66.27412 -53.87272,119.93412 -120.14684,119.85297 -66.27412,-0.0811 -119.93413,-53.87272 -119.85298,-120.14684 0.08115,-66.27412 53.87272,-119.93413 120.14684,-119.85298 66.24535,0.0811 119.89348,53.82778 119.85305,120.07316"
       sodipodi:start="0.0012244538"
       sodipodi:end="6.2837957"
       sodipodi:open="true" />
    <path
       style="fill:#000096;fill-opacity:1;stroke:none"
       d="M 200.15625,372.375 C 133.88213,372.29385 80.08115,425.94463 80,492.21875 79.91885,558.49287 133.56963,612.29385 199.84375,612.375 266.11787,612.45615 319.91885,558.77412 320,492.5 l 0,-0.0625 C 320.04044,426.19212 266.4016,372.45611 200.15625,372.375 z m -0.0312,20 c 55.20445,0.0676 99.9087,44.85801 99.875,100.0625 l 0,0.0625 c -0.0676,55.22843 -44.89657,99.94262 -100.125,99.875 C 144.64657,592.30738 99.932375,547.47843 100,492.25 c 0.0676,-55.22843 44.89657,-99.94262 100.125,-99.875 z"
       id="path2989"
       inkscape:connector-curvature="0" />
    <path
       style="fill:#009600;fill-opacity:1;stroke:none"
       d="M 300.15625,472.375 C 222.83644,472.28033 160.09467,534.86769 160,612.1875 159.90533,689.50731 222.52394,752.28033 299.84375,752.375 377.16356,752.46967 439.90533,689.85106 440,612.53125 l 0,-0.0937 C 440.04717,535.15122 377.44249,472.46963 300.15625,472.375 z m 0,20 C 366.4016,492.45611 420.04044,546.19212 420,612.4375 l 0,0.0625 C 419.91885,678.77412 366.11787,732.45615 299.84375,732.375 233.56963,732.29385 179.91885,678.49287 180,612.21875 180.08115,545.94463 233.88213,492.29385 300.15625,492.375 z"
       id="path2993"
       inkscape:connector-curvature="0" />
    <path
       sodipodi:type="arc"
       style="fill:#0000ff;fill-opacity:1;stroke:none"
       id="path2995"
       sodipodi:cx="200"
       sodipodi:cy="492.36218"
       sodipodi:rx="100"
       sodipodi:ry="100"
       d="m 299.99993,492.48463 c -0.0676,55.22843 -44.89394,99.9451 -100.12238,99.87748 -55.22843,-0.0676 -99.9451,-44.89394 -99.87748,-100.12237 0.0676,-55.22844 44.89394,-99.94511 100.12238,-99.87748 55.20445,0.0676 99.91123,44.85648 99.87753,100.06096"
       sodipodi:start="0.0012244538"
       sodipodi:end="6.2837957"
       sodipodi:open="true" />
    <path
       sodipodi:type="arc"
       style="fill:#00e100;fill-opacity:1;stroke:none"
       id="path2997"
       sodipodi:cx="300"
       sodipodi:cy="612.36218"
       sodipodi:rx="120"
       sodipodi:ry="120"
       d="m 419.99991,612.50912 c -0.0811,66.27412 -53.87272,119.93412 -120.14684,119.85297 -66.27412,-0.0811 -119.93413,-53.87272 -119.85298,-120.14684 0.0812,-66.27412 53.87272,-119.93413 120.14684,-119.85298 66.24535,0.0811 119.89348,53.82778 119.85305,120.07316"
       sodipodi:start="0.0012244538"
       sodipodi:end="6.2837957"
       sodipodi:open="true" />
    <path
       style="fill:#ff0000;fill-opacity:1;stroke:none"
       d="m 300,492.375 c -58.87914,0.003 -107.88662,42.40285 -118.0625,98.375 5.82142,1.06231 11.81054,1.6175 17.9375,1.625 C 255.10343,592.4426 299.93238,547.72843 300,492.5 l 0,-0.0625 c 10e-6,-0.0208 0,-0.0417 0,-0.0625 z"
       id="path3025"
       inkscape:connector-curvature="0" />
    <path
       style="fill:#960000;fill-opacity:1;stroke:none"
       d="m 300.15625,472.375 c -0.71866,-8.8e-4 -1.44015,0.0213 -2.15625,0.0312 1.30647,6.44978 2,13.1341 2,19.96875 0.0523,0 0.10396,-6e-5 0.15625,0 6.75632,0.008 13.36202,0.60666 19.8125,1.6875 0.007,-0.52146 0.0306,-1.03945 0.0312,-1.5625 l 0,-0.0625 c 0.004,-6.4086 -0.50511,-12.70655 -1.46875,-18.84375 -6.01545,-0.79623 -12.14352,-1.21112 -18.375,-1.21875 z m -137.5,112.78125 c -1.31091,6.65866 -2.16936,13.47551 -2.5,20.4375 6.38984,2.24893 13.00979,3.97934 19.84375,5.125 0.0919,-6.8032 0.75844,-13.48461 1.9375,-19.96875 -6.68418,-1.21983 -13.13247,-3.11605 -19.28125,-5.59375 z"
       id="path3030"
       inkscape:connector-curvature="0" />
    <path
       style="fill:#c80000;fill-opacity:1;stroke:none"
       d="m 296.53125,472.40625 c -66.45944,1.60192 -121.42818,49.52733 -133.875,112.75 6.1464,2.47593 12.60001,4.37453 19.28125,5.59375 10.17752,-55.97053 59.18334,-98.37178 118.0625,-98.375 0,-6.8341 -0.69366,-13.5195 -2,-19.96875 -0.48772,0.007 -0.98225,-0.0117 -1.46875,0 z"
       id="path3825"
       inkscape:connector-curvature="0" />
    <path
       style="fill:#c80000;fill-opacity:1;stroke:none"
       d="m 300,492.375 c 0,0.0208 10e-6,0.0417 0,0.0625 l 0,0.0625 c -0.0676,55.22843 -44.89657,99.94262 -100.125,99.875 -6.12696,-0.008 -12.11613,-0.56263 -17.9375,-1.625 -1.17887,6.48432 -1.84561,13.16554 -1.9375,19.96875 6.45142,1.08153 13.08629,1.64798 19.84375,1.65625 65.76164,0.0805 119.25379,-52.7778 120.15625,-118.34375 -6.45948,-1.08409 -13.07766,-1.64797 -19.84375,-1.65625 -0.0523,-6e-5 -0.10397,0 -0.15625,0 z"
       id="path3830"
       inkscape:connector-curvature="0" />
  </g>
</svg>
