<?xml version="1.0" encoding="UTF-8" standalone="no"?>
<!-- Created with Inkscape (http://www.inkscape.org/) -->

<svg
   xmlns:dc="http://purl.org/dc/elements/1.1/"
   xmlns:cc="http://creativecommons.org/ns#"
   xmlns:rdf="http://www.w3.org/1999/02/22-rdf-syntax-ns#"
   xmlns:svg="http://www.w3.org/2000/svg"
   xmlns="http://www.w3.org/2000/svg"
   xmlns:sodipodi="http://sodipodi.sourceforge.net/DTD/sodipodi-0.dtd"
   xmlns:inkscape="http://www.inkscape.org/namespaces/inkscape"
   width="360.00012"
   height="380.01294"
   id="svg2"
   version="1.1"
   inkscape:version="0.48.4 r9939"
   sodipodi:docname="fastcci_notin.svg">
  <defs
     id="defs4" />
  <sodipodi:namedview
     id="base"
     pagecolor="#ffffff"
     bordercolor="#666666"
     borderopacity="1.0"
     inkscape:pageopacity="0.0"
     inkscape:pageshadow="2"
     inkscape:zoom="2.2157141"
     inkscape:cx="180.00006"
     inkscape:cy="190.00648"
     inkscape:document-units="px"
     inkscape:current-layer="layer1"
     showgrid="true"
     inkscape:window-width="1374"
     inkscape:window-height="1027"
     inkscape:window-x="593"
     inkscape:window-y="233"
     inkscape:window-maximized="0"
     fit-margin-top="0"
     fit-margin-left="0"
     fit-margin-right="0"
     fit-margin-bottom="0">
    <inkscape:grid
       type="xygrid"
       id="grid2985"
       empspacing="5"
       visible="true"
       enabled="true"
       snapvisiblegridlinesonly="true"
       originx="-79.999908px"
       originy="-299.98708px" />
  </sodipodi:namedview>
  <metadata
     id="metadata7">
    <rdf:RDF>
      <cc:Work
         rdf:about="">
        <dc:format>image/svg+xml</dc:format>
        <dc:type
           rdf:resource="http://purl.org/dc/dcmitype/StillImage" />
        <dc:title></dc:title>
      </cc:Work>
    </rdf:RDF>
  </metadata>
  <g
     inkscape:label="Layer 1"
     inkscape:groupmode="layer"
     id="layer1"
     transform="translate(-79.999908,-372.36218)">
    <path
       style="fill:#000096;fill-opacity:0.39215687;stroke:none"
       d="M 120.15625 0 C 53.88213 -0.08115 0.08115 53.56963 0 119.84375 C -0.064113365 172.20428 33.414741 216.80167 80.15625 233.25 C 80.487467 226.27745 81.341657 219.44972 82.65625 212.78125 C 45.889423 197.9658 19.948491 161.9414 20 119.875 C 20.0676 64.64657 64.89657 19.93238 120.125 20 C 168.46294 20.059192 208.74831 54.426492 218 100.03125 C 218.72231 100.02115 219.43134 99.999112 220.15625 100 C 226.37876 100.00762 232.5243 100.42449 238.53125 101.21875 C 229.52349 43.928018 179.98444 0.073252906 120.15625 0 z "
       id="path2989"
       transform="translate(79.999908,372.36218)" />
    <path
       style="fill:#0000ff;fill-opacity:0.39215687;stroke:none"
       d="M 120.125 20 C 64.896566 19.932375 20.067625 64.646566 20 119.875 C 19.948492 161.94141 45.888759 197.96652 82.65625 212.78125 C 95.207404 149.11365 150.90533 100.96897 218 100.03125 C 208.75888 54.412536 168.47305 20.0592 120.125 20 z "
       id="path2995"
       transform="translate(79.999908,372.36218)" />
    <path
       style="fill:#009600;fill-opacity:1;stroke:none"
       d="M 238.53125 101.25 C 239.49444 107.38554 240.00391 113.65593 240 120.0625 L 240 120.15625 C 239.99937 120.66873 240.00703 121.17654 240 121.6875 C 296.78124 131.21674 340.03631 180.58403 340 240.0625 L 340 240.125 C 339.91885 306.39912 286.11787 360.08115 219.84375 360 C 153.56963 359.91885 99.91885 306.11787 100 239.84375 C 100.00063 239.33127 99.992967 238.82346 100 238.3125 C 93.17836 237.16701 86.535369 235.46346 80.15625 233.21875 C 80.051703 235.40992 80.002714 237.59598 80 239.8125 C 79.90533 317.13231 142.52394 379.90533 219.84375 380 C 297.16356 380.09467 359.90533 317.47606 360 240.15625 L 360 240.0625 C 360.04337 169.00889 307.12095 110.33063 238.53125 101.25 z "
       id="path2993"
       transform="translate(79.999908,372.36218)" />
    <path
       style="fill:#00e100;fill-opacity:1;stroke:none"
       d="M 240 121.6875 C 239.09768 187.25312 185.60539 240.08052 119.84375 240 C 113.0739 239.99171 106.46277 239.39772 100 238.3125 C 99.992968 238.82346 100.00063 239.33127 100 239.84375 C 99.91885 306.11787 153.56963 359.91885 219.84375 360 C 286.11787 360.08115 339.91885 306.43037 340 240.15625 L 340 240.0625 C 340.03631 180.58403 296.78277 131.2185 240 121.6875 z "
       id="path2997"
       transform="translate(79.999908,372.36218)" />
    <path
       style="fill:#009600;fill-opacity:1;stroke:none"
       d="m 300.15625,472.375 c -0.71866,-8.8e-4 -1.44015,0.0213 -2.15625,0.0312 1.30647,6.44978 2,13.1341 2,19.96875 0.0523,0 0.10396,-6e-5 0.15625,0 6.75632,0.008 13.36202,0.60666 19.8125,1.6875 0.007,-0.52146 0.0306,-1.03945 0.0312,-1.5625 l 0,-0.0625 c 0.004,-6.4086 -0.50511,-12.70655 -1.46875,-18.84375 -6.01545,-0.79623 -12.14352,-1.21112 -18.375,-1.21875 z m -137.5,112.78125 c -1.31091,6.65866 -2.16936,13.47551 -2.5,20.4375 6.38984,2.24893 13.00979,3.97934 19.84375,5.125 0.0919,-6.8032 0.75844,-13.48461 1.9375,-19.96875 -6.68418,-1.21983 -13.13247,-3.11605 -19.28125,-5.59375 z"
       id="path3030"
       inkscape:connector-curvature="0" />
    <path
       style="fill:#c80000;fill-opacity:0.3938053;stroke:none"
       d="m 296.53125,472.40625 c -66.45944,1.60192 -121.42818,49.52733 -133.875,112.75 6.1464,2.47593 12.60001,4.37453 19.28125,5.59375 10.17752,-55.97053 59.18334,-98.37178 118.0625,-98.375 0,-6.8341 -0.69366,-13.5195 -2,-19.96875 -0.48772,0.007 -0.98225,-0.0117 -1.46875,0 z"
       id="path3825"
       inkscape:connector-curvature="0" />
    <path
       style="fill:#009600;fill-opacity:1;stroke:none"
       d="m 300,492.375 c 0,0.0208 10e-6,0.0417 0,0.0625 l 0,0.0625 c -0.0676,55.22843 -44.89657,99.94262 -100.125,99.875 -6.12696,-0.008 -12.11613,-0.56263 -17.9375,-1.625 -1.17887,6.48432 -1.84561,13.16554 -1.9375,19.96875 6.45142,1.08153 13.08629,1.64798 19.84375,1.65625 65.76164,0.0805 119.25379,-52.7778 120.15625,-118.34375 -6.45948,-1.08409 -13.07766,-1.64797 -19.84375,-1.65625 -0.0523,-6e-5 -0.10397,0 -0.15625,0 z"
       id="path3830"
       inkscape:connector-curvature="0" />
    <path
       style="fill:#ff0000;fill-opacity:0.3938053;stroke:none"
       d="m 300,492.375 c -58.87914,0.003 -107.88662,42.40285 -118.0625,98.375 5.82142,1.06231 11.81054,1.6175 17.9375,1.625 C 255.10343,592.4426 299.93238,547.72843 300,492.5 l 0,-0.0625 c 10e-6,-0.0208 0,-0.0417 0,-0.0625 z"
       id="path3025"
       inkscape:connector-curvature="0" />
  </g>
</svg>
